<svg xmlns="http://www.w3.org/2000/svg" aria-hidden="true" style="position:absolute;width:0;height:0;overflow:hidden">
  <defs>
    <symbol id="icon-ac" viewBox="0 0 32 32">
      <path d="M15.554 5.3c-1.351 0-2.66.481-3.705 1.359s-1.761 2.101-2.026 3.459l-.105.54c-.028.12-.031.245-.011.367s.064.239.13.343c.065.105.15.194.25.264s.212.119.331.143c.118.024.24.024.358-.001.119-.025.231-.075.33-.145.099-.071.184-.161.249-.266.064-.104.108-.221.127-.344l.106-.537c.2-1.007.757-1.903 1.563-2.513.807-.61 1.805-.892 2.803-.791.997.102 1.922.58 2.596 1.341.673.761 1.048 1.751 1.05 2.779 0 1.102-.426 2.159-1.186 2.938-.759.779-1.79 1.217-2.864 1.218H2.5c-.239 0-.468.097-.636.27-.169.173-.264.408-.264.653 0 .245.095.48.264.653.168.173.397.27.636.27h13.05c1.527-.038 2.978-.687 4.044-1.808 1.067-1.12 1.664-2.624 1.665-4.19 0-1.566-.596-3.07-1.662-4.192-1.066-1.121-2.517-1.771-4.043-1.81ZM25.9 13.608c-1.193 0-2.338.486-3.182 1.352-.844.865-1.318 2.039-1.318 3.263 0 .245.095.48.264.653.169.173.397.27.636.27s.468-.097.637-.27c.168-.173.263-.408.263-.653 0-.548.158-1.083.455-1.538.297-.456.719-.811 1.212-1.02.493-.21 1.036-.265 1.56-.158.524.107 1.005.371 1.382.758.378.387.635.881.739 1.418.104.537.051 1.094-.153 1.6-.205.506-.551.938-.995 1.243-.444.304-.966.466-1.5.466H2.5c-.239 0-.468.098-.636.271-.169.173-.264.408-.264.652 0 .245.095.48.264.653.168.173.397.271.636.271h17.55c.597.001 1.169.245 1.59.679.421.433.657 1.021.656 1.633-.002.612-.24 1.198-.663 1.63-.422.432-.995.674-1.592.673-.537 0-1.058-.195-1.469-.55-.41-.356-.685-.849-.775-1.392l-.009-.056c-.017-.122-.057-.24-.118-.346-.061-.107-.143-.199-.24-.273-.097-.073-.207-.125-.324-.154-.118-.029-.239-.034-.358-.013-.119.02-.232.065-.334.131-.102.066-.19.152-.258.254-.069.102-.117.216-.141.337-.025.121-.026.246-.002.367l.009.056c.16.974.651 1.859 1.387 2.497.736.638 1.669.988 2.632.988 1.075.001 2.107-.437 2.868-1.216.761-.778 1.189-1.835 1.191-2.938 0-.855-.252-1.648-.682-2.307H25.9c1.194 0 2.338-.487 3.182-1.352.844-.866 1.318-2.04 1.318-3.264 0-1.224-.474-2.398-1.318-3.263-.844-.866-1.988-1.352-3.182-1.352Z" style="fill:#101828;fill-rule:nonzero"/>
    </symbol>
    <symbol id="icon-adults" viewBox="0 0 32 32">
      <path d="M9.067 24.133h-4.4c-.267 0-.4-.133-.533-.267s-.267-.4-.133-.667c.8-2.267 2.8-3.6 5.067-3.6 2.8 0 5.067-2.4 5.067-5.2s-2.267-5.467-5.067-5.467-5.067 2.4-5.067 5.333c0 1.333.533 2.667 1.333 3.6-1.733.933-3.067 2.4-3.867 4.4-.267.933-.133 2.133.533 3.067s1.6 1.467 2.667 1.467h4.4c.8 0 1.333-.533 1.333-1.333s-.533-1.333-1.333-1.333zm-2.4-9.866c0-1.467 1.067-2.533 2.4-2.533s2.4 1.2 2.4 2.533c0 1.467-1.067 2.533-2.4 2.533s-2.4-1.2-2.4-2.533z"/>
      <path d="M30.533 21.467c-.933-2.533-2.8-4.4-4.933-5.467 1.2-1.067 1.867-2.667 1.867-4.533C27.467 8 24.8 5.2 21.6 5.2s-5.867 2.8-5.867 6.267c0 1.733.667 3.333 1.867 4.533-2.133 1.067-4 2.933-4.933 5.467-.667 1.2-.4 2.533.267 3.6s1.867 1.6 3.067 1.6h11.067c1.2 0 2.4-.667 3.067-1.6.8-1.067.933-2.4.4-3.6zM18.267 11.6c0-2 1.467-3.6 3.2-3.6s3.2 1.6 3.2 3.6-1.467 3.6-3.2 3.6-3.2-1.733-3.2-3.6zm9.6 12c-.133.133-.4.533-.8.533H16c-.533 0-.8-.4-.8-.533-.133-.133-.4-.667-.133-1.2 1.067-2.8 3.733-4.667 6.533-4.667s5.467 1.867 6.533 4.667c.133.533-.133 1.067-.267 1.2z"/>
    </symbol>
    <symbol id="icon-air-conditioner" viewBox="0 0 32 32">
      <path strokeLinecap="round" strokeLinejoin="round" strokeWidth="2.4" d="M28.571 1.143H3.428c-.606 0-1.188.241-1.616.669s-.669 1.01-.669 1.616v11.429c0 .606.241 1.188.669 1.616s1.01.669 1.616.669h25.143c.606 0 1.188-.241 1.616-.669s.67-1.01.67-1.616V3.428c0-.606-.241-1.188-.67-1.616s-1.01-.669-1.616-.669z"/>
      <path strokeLinecap="round" strokeLinejoin="round" strokeWidth="2.4" d="M25.143 17.143v-4.571c0-.606-.241-1.188-.67-1.616s-1.01-.669-1.616-.669H9.143c-.606 0-1.188.241-1.616.669s-.669 1.01-.669 1.616v4.571M5.714 28.572h.229c.849 0 1.663-.337 2.263-.937s.937-1.414.937-2.263v-2.514m17.143 5.714h-.229c-.849 0-1.663-.337-2.263-.937s-.937-1.414-.937-2.263v-2.514M16 30.857v-8"/>
    </symbol>
    <symbol id="icon-alcove" viewBox="0 0 32 32">
      <path d="M1.826 6.06h8.686c.073 0 .142-.028.194-.079l.834-.814c.243-.237.565-.367.908-.367H25.62c.613 0 1.183.297 1.523.795l1.579 2.31c.224.328.244.747.054 1.095s-.56.563-.964.563h-6.789v.669H24.5c.922 0 1.751.534 2.112 1.361l2.036 4.655 1.783.696c.952.372 1.568 1.258 1.568 2.259v4.311c0 .643-.536 1.166-1.195 1.166h-2.075c-.241 1.427-1.515 2.52-3.045 2.52s-2.804-1.092-3.045-2.52H11.297c-.241 1.427-1.515 2.52-3.045 2.52s-2.804-1.092-3.045-2.52H1.062c-.586 0-1.063-.465-1.063-1.037V7.84c0-.982.819-1.781 1.826-1.781zm23.859 20.156c1.146 0 2.078-.909 2.078-2.027s-.932-2.027-2.078-2.027-2.078.909-2.078 2.027.932 2.027 2.078 2.027zm-4.661-2.52h1.615c.004-.025.009-.049.014-.073.003-.017.006-.033.01-.05.008-.039.017-.077.027-.115l.006-.024c.012-.046.025-.091.04-.136.004-.013.009-.026.013-.039.01-.032.021-.063.033-.094.006-.017.013-.033.02-.05.01-.027.021-.054.033-.081.007-.018.015-.035.023-.052.011-.026.023-.05.035-.076.009-.018.017-.035.027-.053.012-.024.025-.048.038-.072.009-.017.019-.035.029-.052.013-.024.027-.047.042-.07.01-.017.02-.033.03-.05.015-.024.031-.047.046-.07.01-.015.021-.031.031-.046.017-.025.036-.049.054-.074.009-.013.019-.026.028-.039.025-.032.05-.063.076-.094.004-.005.007-.009.011-.014.03-.035.061-.07.092-.104.01-.011.02-.02.03-.031.022-.023.044-.046.067-.069.013-.013.026-.025.039-.037.021-.02.042-.039.063-.059.014-.013.029-.025.043-.038l.063-.054.046-.037c.021-.017.043-.034.065-.05.016-.012.032-.024.048-.035.022-.016.045-.032.068-.047.016-.011.032-.022.048-.032.024-.016.048-.031.073-.046.016-.009.031-.019.048-.029.027-.016.054-.031.082-.046.014-.008.028-.016.042-.023.039-.02.078-.04.118-.059.003-.001.006-.003.009-.004.043-.02.086-.039.13-.057.014-.006.029-.011.043-.017.03-.012.06-.024.091-.035.017-.006.035-.012.052-.018.028-.009.056-.019.084-.028.019-.006.038-.011.057-.017.027-.008.055-.016.082-.023l.06-.015c.027-.007.055-.013.083-.018.02-.004.04-.009.061-.013.028-.005.057-.01.085-.015.02-.004.04-.007.06-.009.029-.004.059-.008.09-.011.019-.002.038-.005.058-.006.033-.003.067-.006.1-.007.017-.001.033-.003.049-.003.05-.003.1-.004.151-.004s.101.001.151.004c.017 0 .033.002.049.003.034.002.067.004.1.007.019.002.039.004.058.006.03.004.06.007.09.011.021.003.04.006.061.009.029.004.057.009.085.015.021.004.041.008.061.013.028.006.055.012.083.018l.06.015c.027.007.055.015.082.023.019.006.038.011.057.017.028.009.056.018.084.028.017.006.035.012.052.018.031.011.061.023.091.035.014.006.029.011.043.017.044.018.087.037.13.057.003.002.006.003.009.004.04.019.079.039.118.059.014.007.027.015.042.023.027.015.055.03.082.046.016.009.032.019.048.029.024.015.049.03.073.046.016.011.032.022.048.032.023.016.046.031.068.047.016.011.032.023.048.035.022.016.044.033.065.05l.046.037c.021.018.042.035.063.054.015.013.029.025.043.038.021.019.042.039.063.059.013.012.026.024.039.037.023.023.045.046.067.069.01.01.02.02.03.031.031.034.062.068.092.104.004.005.008.009.011.014.026.031.051.062.076.094.01.013.019.026.028.039.019.024.037.049.054.074.01.015.021.03.031.046.016.024.031.047.046.07.01.017.02.033.03.05.014.023.028.047.042.07.01.017.019.035.029.052.013.024.026.048.038.072.009.018.018.035.027.053.012.025.023.05.035.076.008.017.016.035.023.052.012.027.022.054.033.081.007.016.013.033.02.05.011.031.022.063.033.094.004.013.009.026.013.039.014.045.027.09.04.136l.006.024c.01.038.019.076.027.115.004.016.006.033.01.05.005.024.01.048.014.073h2.074c.103 0 .186-.082.186-.182v-2.062h-.787v-.984h.787v-1.264c0-.596-.366-1.124-.933-1.345l-1.888-.737h-7.146v6.574zm0-7.558h6.48l-1.818-4.158c-.203-.464-.668-.763-1.185-.763h-3.477v4.921zM8.252 26.216c1.146 0 2.078-.909 2.078-2.027s-.932-2.027-2.078-2.027c-.036 0-.071.001-.107.003-.955.047-1.742.727-1.929 1.616-.007.033-.013.067-.019.1-.011.067-.017.135-.021.204-.002.035-.003.069-.003.104 0 1.118.932 2.027 2.078 2.027zm-7.243-5.748h.787v.984h-.787v2.192c0 .029.024.052.054.052h4.144c.004-.024.009-.048.014-.072.003-.017.006-.034.01-.051.008-.038.017-.075.027-.112.002-.009.004-.018.006-.026.012-.046.025-.09.04-.135.004-.014.009-.028.014-.041.011-.031.021-.062.032-.093.006-.017.013-.034.02-.051.011-.027.021-.054.032-.08l.024-.054c.011-.025.023-.05.035-.074.008-.018.018-.036.027-.054.012-.024.025-.048.038-.072.01-.017.019-.035.029-.052.014-.024.027-.047.042-.07.01-.017.02-.033.031-.05.015-.024.03-.047.046-.07.01-.016.021-.032.031-.046.017-.025.035-.049.053-.073.01-.013.019-.027.029-.04.024-.031.049-.062.074-.092.004-.006.008-.011.013-.016.03-.035.061-.07.092-.104.01-.011.02-.021.03-.032.022-.023.044-.046.067-.068.013-.013.026-.025.04-.037.021-.02.041-.039.063-.058.014-.013.029-.025.044-.038.021-.018.042-.035.063-.053.015-.013.031-.025.046-.037.021-.017.043-.033.065-.05.016-.012.032-.024.048-.035.022-.016.045-.032.067-.047.017-.011.033-.022.049-.033.024-.016.048-.031.072-.045.016-.01.032-.02.048-.029.027-.016.054-.031.081-.046.014-.008.028-.016.042-.023.038-.02.077-.04.117-.058.003-.002.006-.004.01-.005.043-.02.086-.039.13-.057.014-.006.029-.011.043-.017.03-.012.06-.024.091-.035.017-.006.035-.012.053-.018.027-.009.055-.019.084-.028.019-.006.038-.011.057-.017.027-.008.055-.016.082-.023l.06-.015c.027-.007.055-.013.083-.018.02-.004.04-.009.061-.013.028-.005.056-.01.085-.015.02-.004.04-.007.061-.009.029-.004.059-.008.09-.011.019-.002.038-.005.058-.006.033-.003.067-.006.1-.007.016-.001.033-.003.049-.003.05-.003.1-.004.151-.004s.101.001.151.004c.017 0 .033.002.049.003.033.002.067.004.1.007.019.002.039.004.058.006.03.004.06.007.09.011.021.003.04.006.06.009.029.004.057.009.085.015.021.004.041.008.061.013.028.006.055.012.083.018l.06.015c.027.007.055.015.082.023.019.006.038.011.057.017.028.009.056.018.084.028.018.006.036.012.053.018.031.011.061.023.091.035.014.006.029.011.043.017.044.018.087.037.13.057.004.002.007.003.01.005.04.019.078.038.117.058.014.007.028.015.042.023.027.015.054.03.081.046.016.009.032.019.048.029l.072.045c.016.011.032.022.049.033.023.015.045.031.067.047.016.011.032.023.048.035.022.016.044.033.065.05.016.012.031.025.046.037.021.017.042.035.063.053.015.013.029.025.044.038.021.019.042.039.063.059.013.012.026.024.039.037.023.022.045.046.067.069.01.01.02.02.03.031.031.034.062.068.092.104l.012.015c.025.031.051.062.075.094.01.013.019.026.029.039.018.024.036.049.054.074.01.015.021.031.031.046.016.023.031.046.046.07.01.017.021.033.031.05.014.023.028.047.042.07.01.017.019.035.029.052.013.024.026.048.038.072.009.018.017.035.026.053.012.025.023.05.035.076.008.017.016.035.023.052.012.027.022.054.033.081.006.016.013.033.019.05.012.031.022.063.033.095.004.013.009.026.013.039.014.045.027.091.04.136.002.007.003.015.005.022.01.039.019.078.028.117.004.016.006.032.009.048.005.025.01.049.015.074h8.717V9.073c0-.272.226-.492.504-.492h7.293c.012 0 .051 0 .075-.044s.003-.074-.004-.084l-1.578-2.31c-.153-.224-.408-.357-.684-.357H12.453c-.073 0-.142.028-.195.079l-.834.814c-.242.237-.565.367-.908.367H1.83c-.45 0-.817.357-.817.797V20.47z"/>
      <path d="M14.081 9.838h3.191c.644 0 1.169.511 1.169 1.14V21.51c0 .272-.226.492-.504.492h-4.52c-.278 0-.504-.22-.504-.492V10.978c0-.629.524-1.14 1.169-1.14zm-.16 11.181h3.511v-5.787h-3.511v5.787zm0-6.771h3.511v-3.269c0-.086-.072-.156-.16-.156h-3.191c-.088 0-.16.07-.16.156v3.269zM3.875 9.838h6.17c.713 0 1.293.566 1.293 1.262v2.87c0 .696-.58 1.262-1.293 1.262h-6.17c-.713 0-1.293-.566-1.293-1.262V11.1c0-.696.581-1.262 1.294-1.262zM3.59 13.97c0 .153.127.278.284.278h6.17c.157 0 .284-.124.284-.278V11.1c0-.153-.128-.278-.284-.278h-6.17c-.157 0-.284.124-.284.278v2.87z"/>
    </symbol>
    <symbol id="icon-automatic" viewBox="0 0 32 32">
      <path fill="none" d="M22.6667 14.6667H24.6667C25.1971 14.6667 25.7058 14.456 26.0809 14.0809C26.456 13.7058 26.6667 13.1971 26.6667 12.6667C26.6667 12.1362 26.456 11.6275 26.0809 11.2525C25.7058 10.8774 25.1971 10.6667 24.6667 10.6667H22.6667V17.3333M22.6667 22.6667V28H24C24.7072 28 25.3855 27.719 25.8856 27.219C26.3857 26.7189 26.6667 26.0406 26.6667 25.3333C26.6667 24.6261 26.3857 23.9478 25.8856 23.4477C25.3855 22.9476 24.7072 22.6667 24 22.6667H22.6667ZM4 6.66667C4 7.37391 4.28095 8.05219 4.78105 8.55229C5.28115 9.05238 5.95942 9.33333 6.66667 9.33333C7.37391 9.33333 8.05219 9.05238 8.55229 8.55229C9.05238 8.05219 9.33333 7.37391 9.33333 6.66667C9.33333 5.95942 9.05238 5.28115 8.55229 4.78105C8.05219 4.28095 7.37391 4 6.66667 4C5.95942 4 5.28115 4.28095 4.78105 4.78105C4.28095 5.28115 4 5.95942 4 6.66667Z" stroke="#101828" stroke-width="2.08" stroke-linecap="round" stroke-linejoin="round"/>
<path fill="none" d="M6.66675 9.33333V13.3333C6.66675 13.687 6.80722 14.0261 7.05727 14.2761C7.30732 14.5262 7.64646 14.6667 8.00008 14.6667H12.0001M12.0001 14.6667V24C12.0001 24.3536 12.1406 24.6928 12.3906 24.9428C12.6407 25.1929 12.9798 25.3333 13.3334 25.3333H17.3334M12.0001 14.6667H17.3334" stroke="#101828" stroke-width="2.08" stroke-linecap="round" stroke-linejoin="round"/>
    </symbol>
    <symbol id="icon-beds" viewBox="0 0 32 32">
      <path strokeLinecap="round" strokeLinejoin="round" stroke="#101828" fill="none" stroke-width="1.4" d="M3 26v-7c.003-1.06.426-2.076 1.175-2.825S5.94 15.003 7 15h18c1.06.003 2.076.426 2.825 1.175S28.997 17.94 29 19v7m-5-11H6V8.5c.002-.662.266-1.297.734-1.766S7.837 6.002 8.5 6h15c.662.002 1.297.266 1.766.734S25.998 7.837 26 8.5V15h-2z"/>
      <path strokeLinecap="round" stroke="#101828" strokeLinejoin="round" fill="none" stroke-width="1.4" d="M3 26v-.5c.001-.397.16-.778.441-1.059s.662-.44 1.059-.441h23c.397.001.778.16 1.059.441s.44.662.441 1.059v.5M7 15v-1c.002-.53.213-1.038.587-1.413S8.47 12.001 9 12h5c.53.002 1.038.213 1.413.587s.586.883.587 1.413m0 0v1m0-1c.001-.53.213-1.038.587-1.413S17.47 12.001 18 12h5c.53.002 1.038.213 1.413.587s.586.883.587 1.413v1"/>
    </symbol>
    <symbol id="icon-calendar" viewBox="0 0 32 32">
      <path strokeLinecap="round" strokeLinejoin="round" strokeWidth="2.4" d="M25.333 5.333H6.666C5.193 5.333 3.999 6.527 3.999 8v18.667c0 1.473 1.194 2.667 2.667 2.667h18.667c1.473 0 2.667-1.194 2.667-2.667V8c0-1.473-1.194-2.667-2.667-2.667zM21.334 2.667V8M10.666 2.667V8M4 13.333h24"/>
    </symbol>
    <symbol id="icon-cd" viewBox="0 0 32 32">
      <path fill="none" stroke="#101828" stroke-width="2.4" d="M16 28c6.627 0 12-5.373 12-12S22.627 4 16 4 4 9.373 4 16s5.373 12 12 12z"/>
      <path fill="none" stroke="#101828" strokeLinecap="round" stroke-width="2.4" d="M8.667 16c0-4.05 3.283-7.333 7.333-7.333"/>
      <path fill="none" stroke="#101828" stroke-width="2.4" d="M16 19.333c1.841 0 3.333-1.492 3.333-3.333S17.841 12.667 16 12.667c-1.841 0-3.333 1.492-3.333 3.333s1.492 3.333 3.333 3.333z"/>
    </symbol>
    <symbol id="icon-cross" viewBox="0 0 32 32">
      <path strokeLinecap="round" strokeLinejoin="round" strokeWidth="3" d="M24 8 8 24M8 8l16 16"/>
    </symbol>
    <symbol id="icon-delivery" viewBox="0 0 32 32">
      <path d="M7.04 7.04C3.16 7.04 0 10.2 0 14.08c0 1.502.477 2.893 1.28 4.037v8.765c0 1.063.858 1.918 1.92 1.918h1.34c.305 1.81 1.885 3.2 3.78 3.2s3.475-1.39 3.78-3.2h5.92c.475 0 .907-.192 1.232-.495.328.29.745.49 1.223.495h.705c.305 1.81 1.885 3.2 3.78 3.2 2.113 0 3.84-1.727 3.84-3.84s-1.727-3.84-3.84-3.84c-1.895 0-3.475 1.39-3.78 3.2h-.695c-.12 0-.3-.075-.435-.21-.137-.137-.21-.313-.21-.43V14.72c0-.24.4-.64.64-.64h5.12c.508 0 1.23.555 1.72 1.143l.1.137h-3.1c-1.02 0-1.92.825-1.92 1.92v2.56c0 .532.247.992.587 1.332s.8.587 1.332.587h6.4v5.12c0 .24-.4.64-.64.64h-1.28v1.28h1.28c1.063 0 1.92-.858 1.92-1.92v-6.152c0-1.465-1.023-2.76-1.023-2.76l-.008-.008-2.663-3.55c-.59-.713-1.483-1.61-2.707-1.61h-5.12c-.227 0-.44.045-.64.117v-1.457c0-.982-.775-1.86-1.8-1.86h-5.572c-1.295-1.563-3.248-2.56-5.428-2.56zm0 1.28c3.187 0 5.76 2.572 5.76 5.76s-2.572 5.76-5.76 5.76c-3.188 0-5.76-2.573-5.76-5.76s2.572-5.76 5.76-5.76zm-.01.63c-.353.008-.635.297-.63.65v3.7c-.235.193-.37.477-.37.78 0 .033.003.065.005.1l-1.367 1.367c-.168.16-.235.4-.175.622.058.225.232.4.458.457.223.06.463-.008.623-.175l1.367-1.367c.032.002.067.005.1.005.558 0 1.01-.453 1.01-1.01 0-.303-.135-.588-.37-.78v-3.7c.003-.172-.065-.34-.188-.463s-.29-.19-.463-.188zm6.273 1.93h4.737c.275 0 .52.265.52.58v15.52c0 .302-.238.54-.54.54H12.1c-.305-1.81-1.885-3.2-3.78-3.2s-3.475 1.39-3.78 3.2H3.2c-.24 0-.64-.4-.64-.637v-7.38c1.217 1.01 2.78 1.617 4.48 1.617 3.88 0 7.04-3.16 7.04-7.04 0-1.152-.283-2.24-.777-3.2zm11.017 5.76h4.06l1.555 2.072c.003.005.587 1.003.71 1.767H24.32c-.108 0-.288-.073-.427-.212s-.212-.32-.212-.427v-2.56c0-.323.38-.64.64-.64zm-16 8.96c1.422 0 2.56 1.137 2.56 2.56s-1.137 2.56-2.56 2.56-2.56-1.137-2.56-2.56 1.138-2.56 2.56-2.56zm16.64 0c1.422 0 2.56 1.137 2.56 2.56s-1.137 2.56-2.56 2.56c-1.422 0-2.56-1.137-2.56-2.56s1.137-2.56 2.56-2.56z"/>
    </symbol>
    <symbol id="icon-freezer" viewBox="0 0 32 32">
      <path stroke="#101828" fill="none" strokeLinecap="round" strokeLinejoin="round" stroke-width="2.08" d="M23.4 3H8.607c-1.105 0-2 .895-2 2v20.387c0 1.104.895 2 2 2H23.4c1.104 0 2-.896 2-2V5c0-1.105-.896-2-2-2z"/>
      <path stroke="#101828" fill="none" strokeLinecap="round" strokeLinejoin="round" stroke-width="2.08" d="M6.607 13.127h18.787m-15.081-2.56v-4.04m0 12.913V15.4M8.427 27.387v.7c0 .241.095.472.265.643s.4.268.642.27h1.647c.242 0 .475-.096.646-.268s.268-.404.268-.646v-.7m8.205.001v.7c0 .242.096.474.268.646s.404.268.646.268h1.653c.242 0 .474-.096.646-.268s.268-.404.268-.646v-.7"/>
    </symbol>
    <symbol id="icon-fully-integrated" viewBox="0 0 32 32">
      <path d="M1.826 6.06h8.686c.073 0 .142-.028.194-.079l.834-.814c.243-.237.565-.367.908-.367H25.62c.613 0 1.183.297 1.523.795l1.579 2.31c.224.328.244.747.054 1.095s-.56.563-.964.563h-6.789v.669H24.5c.922 0 1.751.534 2.112 1.361l2.036 4.655 1.783.696c.952.372 1.568 1.258 1.568 2.259v4.311c0 .643-.536 1.166-1.195 1.166h-2.075c-.241 1.427-1.515 2.52-3.045 2.52s-2.804-1.092-3.045-2.52H11.297c-.241 1.427-1.515 2.52-3.045 2.52s-2.804-1.092-3.045-2.52H1.062c-.586 0-1.063-.465-1.063-1.037V7.84c0-.982.819-1.781 1.826-1.781zm23.859 20.156c1.146 0 2.078-.909 2.078-2.027s-.932-2.027-2.078-2.027-2.078.909-2.078 2.027.932 2.027 2.078 2.027zm-4.661-2.52h1.615c.004-.025.009-.049.014-.073.003-.017.006-.033.01-.05.008-.039.017-.077.027-.115l.006-.024c.012-.046.025-.091.04-.136.004-.013.009-.026.013-.039.01-.032.021-.063.033-.094.006-.017.013-.033.02-.05.01-.027.021-.054.033-.081.007-.018.015-.035.023-.052.011-.026.023-.05.035-.076.009-.018.017-.035.027-.053.012-.024.025-.048.038-.072.009-.017.019-.035.029-.052.013-.024.027-.047.042-.07.01-.017.02-.033.03-.05.015-.024.031-.047.046-.07.01-.015.021-.031.031-.046.017-.025.036-.049.054-.074.009-.013.019-.026.028-.039.025-.032.05-.063.076-.094.004-.005.007-.009.011-.014.03-.035.061-.07.092-.104.01-.011.02-.02.03-.031.022-.023.044-.046.067-.069.013-.013.026-.025.039-.037.021-.02.042-.039.063-.059.014-.013.029-.025.043-.038l.063-.054.046-.037c.021-.017.043-.034.065-.05.016-.012.032-.024.048-.035.022-.016.045-.032.068-.047.016-.011.032-.022.048-.032.024-.016.048-.031.073-.046.016-.009.031-.019.048-.029.027-.016.054-.031.082-.046.014-.008.028-.016.042-.023.039-.02.078-.04.118-.059.003-.001.006-.003.009-.004.043-.02.086-.039.13-.057.014-.006.029-.011.043-.017.03-.012.06-.024.091-.035.017-.006.035-.012.052-.018.028-.009.056-.019.084-.028.019-.006.038-.011.057-.017.027-.008.055-.016.082-.023l.06-.015c.027-.007.055-.013.083-.018.02-.004.04-.009.061-.013.028-.005.057-.01.085-.015.02-.004.04-.007.06-.009.029-.004.059-.008.09-.011.019-.002.038-.005.058-.006.033-.003.067-.006.1-.007.017-.001.033-.003.049-.003.05-.003.1-.004.151-.004s.101.001.151.004c.017 0 .033.002.049.003.034.002.067.004.1.007.019.002.039.004.058.006.03.004.06.007.09.011.021.003.04.006.061.009.029.004.057.009.085.015.021.004.041.008.061.013.028.006.055.012.083.018l.06.015c.027.007.055.015.082.023.019.006.038.011.057.017.028.009.056.018.084.028.017.006.035.012.052.018.031.011.061.023.091.035.014.006.029.011.043.017.044.018.087.037.13.057.003.002.006.003.009.004.04.019.079.039.118.059.014.007.027.015.042.023.027.015.055.03.082.046.016.009.032.019.048.029.024.015.049.03.073.046.016.011.032.022.048.032.023.016.046.031.068.047.016.011.032.023.048.035.022.016.044.033.065.05l.046.037c.021.018.042.035.063.054.015.013.029.025.043.038.021.019.042.039.063.059.013.012.026.024.039.037.023.023.045.046.067.069.01.01.02.02.03.031.031.034.062.068.092.104.004.005.008.009.011.014.026.031.051.062.076.094.01.013.019.026.028.039.019.024.037.049.054.074.01.015.021.03.031.046.016.024.031.047.046.07.01.017.02.033.03.05.014.023.028.047.042.07.01.017.019.035.029.052.013.024.026.048.038.072.009.018.018.035.027.053.012.025.023.05.035.076.008.017.016.035.023.052.012.027.022.054.033.081.007.016.013.033.02.05.011.031.022.063.033.094.004.013.009.026.013.039.014.045.027.09.04.136l.006.024c.01.038.019.076.027.115.004.016.006.033.01.05.005.024.01.048.014.073h2.074c.103 0 .186-.082.186-.182v-2.062h-.787v-.984h.787v-1.264c0-.596-.366-1.124-.933-1.345l-1.888-.737h-7.146v6.574zm0-7.558h6.48l-1.818-4.158c-.203-.464-.668-.763-1.185-.763h-3.477v4.921zM8.252 26.216c1.146 0 2.078-.909 2.078-2.027s-.932-2.027-2.078-2.027c-.036 0-.071.001-.107.003-.955.047-1.742.727-1.929 1.616-.007.033-.013.067-.019.1-.011.067-.017.135-.021.204-.002.035-.003.069-.003.104 0 1.118.932 2.027 2.078 2.027zm-7.243-5.748h.787v.984h-.787v2.192c0 .029.024.052.054.052h4.144c.004-.024.009-.048.014-.072.003-.017.006-.034.01-.051.008-.038.017-.075.027-.112.002-.009.004-.018.006-.026.012-.046.025-.09.04-.135.004-.014.009-.028.014-.041.011-.031.021-.062.032-.093.006-.017.013-.034.02-.051.011-.027.021-.054.032-.08l.024-.054c.011-.025.023-.05.035-.074.008-.018.018-.036.027-.054.012-.024.025-.048.038-.072.01-.017.019-.035.029-.052.014-.024.027-.047.042-.07.01-.017.02-.033.031-.05.015-.024.03-.047.046-.07.01-.016.021-.032.031-.046.017-.025.035-.049.053-.073.01-.013.019-.027.029-.04.024-.031.049-.062.074-.092.004-.006.008-.011.013-.016.03-.035.061-.07.092-.104.01-.011.02-.021.03-.032.022-.023.044-.046.067-.068.013-.013.026-.025.04-.037.021-.02.041-.039.063-.058.014-.013.029-.025.044-.038.021-.018.042-.035.063-.053.015-.013.031-.025.046-.037.021-.017.043-.033.065-.05.016-.012.032-.024.048-.035.022-.016.045-.032.067-.047.017-.011.033-.022.049-.033.024-.016.048-.031.072-.045.016-.01.032-.02.048-.029.027-.016.054-.031.081-.046.014-.008.028-.016.042-.023.038-.02.077-.04.117-.058.003-.002.006-.004.01-.005.043-.02.086-.039.13-.057.014-.006.029-.011.043-.017.03-.012.06-.024.091-.035.017-.006.035-.012.053-.018.027-.009.055-.019.084-.028.019-.006.038-.011.057-.017.027-.008.055-.016.082-.023l.06-.015c.027-.007.055-.013.083-.018.02-.004.04-.009.061-.013.028-.005.056-.01.085-.015.02-.004.04-.007.061-.009.029-.004.059-.008.09-.011.019-.002.038-.005.058-.006.033-.003.067-.006.1-.007.016-.001.033-.003.049-.003.05-.003.1-.004.151-.004s.101.001.151.004c.017 0 .033.002.049.003.033.002.067.004.1.007.019.002.039.004.058.006.03.004.06.007.09.011.021.003.04.006.06.009.029.004.057.009.085.015.021.004.041.008.061.013.028.006.055.012.083.018l.06.015c.027.007.055.015.082.023.019.006.038.011.057.017.028.009.056.018.084.028.018.006.036.012.053.018.031.011.061.023.091.035.014.006.029.011.043.017.044.018.087.037.13.057.004.002.007.003.01.005.04.019.078.038.117.058.014.007.028.015.042.023.027.015.054.03.081.046.016.009.032.019.048.029l.072.045c.016.011.032.022.049.033.023.015.045.031.067.047.016.011.032.023.048.035.022.016.044.033.065.05.016.012.031.025.046.037.021.017.042.035.063.053.015.013.029.025.044.038.021.019.042.039.063.059.013.012.026.024.039.037.023.022.045.046.067.069.01.01.02.02.03.031.031.034.062.068.092.104l.012.015c.025.031.051.062.075.094.01.013.019.026.029.039.018.024.036.049.054.074.01.015.021.031.031.046.016.023.031.046.046.07.01.017.021.033.031.05.014.023.028.047.042.07.01.017.019.035.029.052.013.024.026.048.038.072.009.018.017.035.026.053.012.025.023.05.035.076.008.017.016.035.023.052.012.027.022.054.033.081.006.016.013.033.019.05.012.031.022.063.033.095.004.013.009.026.013.039.014.045.027.091.04.136.002.007.003.015.005.022.01.039.019.078.028.117.004.016.006.032.009.048.005.025.01.049.015.074h8.717V9.073c0-.272.226-.492.504-.492h7.293c.012 0 .051 0 .075-.044s.003-.074-.004-.084l-1.578-2.31c-.153-.224-.408-.357-.684-.357H12.453c-.073 0-.142.028-.195.079l-.834.814c-.242.237-.565.367-.908.367H1.83c-.45 0-.817.357-.817.797V20.47z"/>
      <path d="M14.081 9.838h3.191c.644 0 1.169.511 1.169 1.14V21.51c0 .272-.226.492-.504.492h-4.52c-.278 0-.504-.22-.504-.492V10.978c0-.629.524-1.14 1.169-1.14zm-.16 11.181h3.511v-5.787h-3.511v5.787zm0-6.771h3.511v-3.269c0-.086-.072-.156-.16-.156h-3.191c-.088 0-.16.07-.16.156v3.269z"/>
    </symbol>
    <symbol id="icon-gas" viewBox="0 0 32 32">
      <path fill="none" stroke="#101828" stroke-width="1.8" d="M25.072 13.991c-.368-.453-.816-.846-1.232-1.239-1.072-.907-2.288-1.556-3.311-2.508-2.384-2.206-2.912-5.848-1.392-8.644-1.52.348-2.848 1.133-3.983 1.995-4.143 3.143-5.775 8.689-3.823 13.449.064.151.128.302.128.499 0 .332-.24.635-.56.756-.368.151-.752.06-1.056-.181-.091-.071-.167-.159-.224-.257-1.808-2.161-2.096-5.259-.88-7.737-2.672 2.055-4.127 5.531-3.919 8.81.096.756.192 1.511.464 2.267.224.907.656 1.813 1.136 2.614 1.728 2.614 4.719 4.488 7.935 4.866 3.423.408 7.087-.181 9.71-2.418 2.927-2.508 3.951-6.528 2.448-9.974l-.208-.393c-.336-.695-1.232-1.904-1.232-1.904zm-5.055 9.521c-.448.363-1.184.756-1.76.907-1.792.604-3.583-.242-4.639-1.239 1.904-.423 3.039-1.753 3.375-3.098.272-1.209-.24-2.206-.448-3.37-.192-1.118-.16-2.07.272-3.113.304.574.624 1.148 1.008 1.602 1.232 1.511 3.167 2.176 3.583 4.231.064.212.096.423.096.65.048 1.239-.528 2.599-1.488 3.43z"/>
    </symbol>
    <symbol id="icon-heart" viewBox="0 0 32 32">
      <path strokeLinecap="round" strokeLinejoin="round" stroke-width="3.0667" d="M27.787 6.147c-.681-.681-1.49-1.222-2.379-1.591s-1.844-.559-2.807-.559-1.917.19-2.807.559c-.89.369-1.699.909-2.38 1.591L16.001 7.56l-1.413-1.413c-1.376-1.376-3.241-2.148-5.187-2.148s-3.811.773-5.187 2.148c-1.376 1.376-2.148 3.241-2.148 5.187s.773 3.811 2.148 5.187l11.787 11.787 11.787-11.787c.681-.681 1.222-1.49 1.591-2.38s.559-1.844.559-2.807-.19-1.917-.559-2.807c-.369-.89-.909-1.699-1.591-2.38z"/>
    </symbol>
    <symbol id="icon-hob" viewBox="0 0 32 32">
      <path fill="none" stroke="#101828" stroke-width="2.4" d="M12 6.667h16c.354 0 .693.14.943.391s.391.589.391.943v17.333c0 .354-.14.693-.391.943s-.589.391-.943.391H12m0-20.001H4c-.354 0-.693.14-.943.391s-.39.589-.39.943v17.333c0 .354.14.693.39.943s.589.391.943.391h8m0-20.001v20" style="stroke:var(--color1, #101828)"/>
      <path fill="none" stroke="#101828" strokeLinecap="round" strokeLinejoin="round" stroke-width="2.4" d="M7.333 11.333V14m17.334-3.333-8 11.333" style="stroke:var(--color1, #101828)"/>
      <path d="M8.667 18c0-.736-.597-1.333-1.333-1.333S6.001 17.264 6.001 18s.597 1.333 1.333 1.333S8.667 18.736 8.667 18zM8.667 22c0-.736-.597-1.333-1.333-1.333S6.001 21.264 6.001 22s.597 1.333 1.333 1.333S8.667 22.736 8.667 22z"/>
    </symbol>
    <symbol id="icon-kitchen" viewBox="0 0 32 32">
       <path stroke="#101828" fill="none" stroke-linecap="round" stroke-linejoin="round" stroke-width="1.8" d="M25.8334 20.5v-16c-6.4213 6.1253-6.6973 11.092-6.6667 16h6.6667Zm0 0v8h-1.3333v-4M11.1667 5.83333V28.5M7.16675 5.83333v4c0 1.06087.42143 2.07827 1.17157 2.82847.75015.7501 1.76758 1.1715 2.82838 1.1715 1.0609 0 2.0783-.4214 2.8285-1.1715.7501-.7502 1.1715-1.7676 1.1715-2.82847v-4"/>
    </symbol>
    <symbol id="icon-map-pin" viewBox="0 0 32 32">
      <path strokeLinecap="round" strokeLinejoin="round" fill="none" stroke-width="2.4" d="M28 13.333c0 9.333-12 17.333-12 17.333s-12-8-12-17.333c0-3.183 1.264-6.235 3.515-8.485S12.818 1.333 16 1.333c3.183 0 6.235 1.264 8.485 3.515S28 10.151 28 13.333z"/>
      <path strokeLinecap="round" strokeLinejoin="round" fill="none" stroke-width="2.4" d="M16 17.333c2.209 0 4-1.791 4-4s-1.791-4-4-4-4 1.791-4 4 1.791 4 4 4z"/>
    </symbol>
    <symbol id="icon-microwave" viewBox="0 0 32 32">
      <path stroke="#101828" fill="none" strokeLinecap="round" strokeLinejoin="round" stroke-width="2.24" d="M29.714 5.714H2.285c-.303 0-.594.12-.808.335s-.335.505-.335.808v18.286c0 .303.12.594.335.808s.505.335.808.335h27.429c.303 0 .594-.12.808-.335s.335-.505.335-.808V6.857c0-.303-.12-.594-.335-.808s-.505-.335-.808-.335z"/>
      <path stroke="#101828" fill="none" strokeLinecap="round" strokeLinejoin="round" stroke-width="2.24" d="M25.143 11.428h1.143M25.143 16h1.143m-6.858-5.714H6.857c-.303 0-.594.12-.808.335s-.335.505-.335.808v9.143c0 .303.12.594.335.808s.505.335.808.335h12.571c.303 0 .594-.12.808-.335s.335-.505.335-.808v-9.143c0-.303-.12-.594-.335-.808s-.505-.335-.808-.335z"/>
    </symbol>
    <symbol id="icon-petrol" viewBox="0 0 32 32">
      <path d="m26.36 9.64.013-.013-4.96-4.96L20 6.08l2.813 2.813c-1.253.48-2.147 1.68-2.147 3.107 0 .438.086.871.254 1.276s.413.772.723 1.081c.625.625 1.473.976 2.357.976.48 0 .92-.107 1.333-.28v9.613c0 .354-.14.693-.391.943s-.589.391-.943.391-.693-.14-.943-.391-.391-.589-.391-.943v-6c0-.707-.281-1.386-.781-1.886s-1.178-.781-1.886-.781h-1.333V6.666c0-.707-.281-1.386-.781-1.886s-1.178-.781-1.886-.781h-8c-.707 0-1.386.281-1.886.781s-.781 1.178-.781 1.886v21.333h13.333v-10h2v6.667c0 .884.351 1.732.976 2.357s1.473.976 2.357.976c.438 0 .871-.086 1.276-.254s.772-.413 1.081-.723c.309-.309.555-.677.723-1.081s.254-.838.254-1.276V11.998c0-.92-.373-1.76-.973-2.36zM16 18v7.333H8V16h8v2zm0-4.667H8V6.666h8v6.667zm8 0c-.354 0-.693-.14-.943-.39s-.391-.589-.391-.943.14-.693.391-.943.589-.39.943-.39.693.14.943.39.391.589.391.943-.14.693-.391.943-.589.39-.943.39z"/>
    </symbol>
    <symbol id="icon-radio" viewBox="0 0 32 32">
      <path fill="none" stroke="#101828" stroke-width="2.08" d="M2.667 18.667c0-5.028 0-7.543 1.563-9.104C5.791 8 8.306 8 13.334 8h5.333c5.028 0 7.543 0 9.104 1.563 1.563 1.561 1.563 4.076 1.563 9.104s0 7.543-1.563 9.104c-1.561 1.563-4.076 1.563-9.104 1.563h-5.333c-5.028 0-7.543 0-9.104-1.563-1.563-1.561-1.563-4.076-1.563-9.104z"/>
      <path fill="none" stroke="#101828" stroke-width="2.08" d="M6.667 14.667c0-.707.281-1.386.781-1.886S8.626 12 9.334 12h13.333c.707 0 1.386.281 1.886.781s.781 1.178.781 1.886-.281 1.386-.781 1.886-1.178.781-1.886.781H9.334c-.707 0-1.386-.281-1.886-.781s-.781-1.178-.781-1.886zm5.333 8c0 .53-.211 1.039-.586 1.414s-.884.586-1.414.586-1.039-.211-1.414-.586S8 23.197 8 22.667s.211-1.039.586-1.414.884-.586 1.414-.586c.53 0 1.039.211 1.414.586s.586.884.586 1.414z"/>
      <path fill="none" stroke="#101828" strokeLinecap="round" stroke-width="2.08" d="M20 15.333v2m-2.667 5.334H24M8.667 8 20 2.667"/>
    </symbol>
    <symbol id="icon-rent" viewBox="0 0 32 32">
      <path d="M4.48 3.84C2.013 3.84 0 5.853 0 8.32v14.72c0 1.052.868 1.92 1.92 1.92h2.62c.305 1.815 1.883 3.2 3.78 3.2s3.475-1.385 3.78-3.2h5.92c.473 0 .895-.2 1.22-.5.332.293.758.497 1.24.5h1.34c.305 1.815 1.883 3.2 3.78 3.2s3.475-1.385 3.78-3.2h.7c1.063 0 1.92-.858 1.92-1.92v-5.52c0-1.465-1.02-2.76-1.02-2.76h-.02l-2.64-3.52v-.02l-.02-.02c-.13-.158-.28-.338-.44-.5.983-.48 1.445-1.8.78-2.8l-1.36-2.06c-.83-1.245-2.242-2-3.74-2zm0 1.28h19.06c1.07 0 2.065.53 2.66 1.42l1.38 2.06c.302.455.008 1-.54 1h-6.56c-1.063 0-1.92.857-1.92 1.92v7.04H1.28V8.32c0-1.775 1.425-3.2 3.2-3.2zm0 1.92c-.7 0-1.28.58-1.28 1.28v6.4c0 .7.58 1.28 1.28 1.28h10.24c.7 0 1.28-.58 1.28-1.28v-6.4c0-.7-.58-1.28-1.28-1.28zm14.6 0c-.352.032-.613.348-.58.7s.348.613.7.58h5.12c.23.002.445-.117.563-.318.115-.2.115-.445 0-.645-.117-.2-.332-.32-.563-.317H19.08zM4.48 8.32h10.24v6.4H4.48zm16 2.56h2.56v5.76c0 .7.58 1.28 1.28 1.28h6.4v5.12c0 .238-.402.64-.64.64h-.7c-.305-1.815-1.883-3.2-3.78-3.2s-3.475 1.385-3.78 3.2h-1.34c-.117 0-.302-.082-.44-.22s-.2-.305-.2-.42V11.52c0-.238.402-.64.64-.64zm3.84 0h1.28c.503 0 1.212.54 1.7 1.12.005.008.015.012.02.02l2.62 3.5s.267.53.5 1.12h-6.12zM1.28 19.84h17.28v3.3c0 .3-.24.54-.54.54H12.1c-.305-1.815-1.883-3.2-3.78-3.2s-3.475 1.385-3.78 3.2H1.92c-.353 0-.64-.288-.64-.64zm7.04 1.92c1.422 0 2.56 1.137 2.56 2.56s-1.137 2.56-2.56 2.56-2.56-1.137-2.56-2.56 1.138-2.56 2.56-2.56zm17.28 0c1.422 0 2.56 1.137 2.56 2.56s-1.137 2.56-2.56 2.56c-1.422 0-2.56-1.137-2.56-2.56s1.137-2.56 2.56-2.56z"/>
    </symbol>
    <symbol id="icon-shower" viewBox="0 0 32 32">
      <path stroke="#101828" stroke-linecap="round" fill="none" stroke-linejoin="round" stroke-width="2" d="m5.33325 5.83334 3.33334 3.33333m9.33331 0c-1.2419-1.21709-2.914-1.89489-4.6528-1.88611-1.7389.00878-3.40404.70344-4.63361 1.93301-1.22958 1.22953-1.92423 2.89473-1.93301 4.63353-.00879 1.7389.66901 3.411 1.88611 4.6529M19.9999 7.16667 6.66659 20.5m12.00001 2.6667v.0133m-5.3333-1.3467v.0134m4-4.0134v.0134m4-4.0134v.0134m-6.6667 13.32v.0133m8-8.0133v.0133m4-4.0133v.0133"/>
    </symbol>
    <symbol id="icon-star" viewBox="0 0 32 32">
      <path fill="#ffc531" stroke="#ffc531" strokeWidth="2.4" d="M12.4 9.394 16 2.572l3.6 6.822c.318.603.899 1.025 1.571 1.141l7.601 1.315-5.376 5.532c-.475.489-.697 1.171-.6 1.846l1.098 7.635-6.922-3.404c-.612-.301-1.329-.301-1.941 0l-6.922 3.404 1.098-7.635c.097-.675-.125-1.357-.6-1.846L3.231 11.85l7.601-1.315c.672-.116 1.252-.538 1.571-1.141zm16.635 2.185zM7.767 27.031z" style="fill:var(--color2, #ffc531);stroke:var(--color2, #ffc531)"/>
    </symbol>
    <symbol id="icon-toilet" viewBox="0 0 32 32">
      <path d="M24 4c1.939 0 3.269 1.647 4.04 3.313.761 1.653 1.224 3.811 1.287 6.145l.007.541v12.667c0 .18-.036.357-.106.523s-.173.315-.303.439c-.13.125-.283.222-.451.285s-.347.093-.527.086l-.165-.019-3.781-.629-3.781.629c-.16.027-.324.024-.483-.008l-.157-.041-3.579-1.193-3.579 1.193c-.188.063-.387.083-.583.059s-.385-.092-.552-.197-.309-.248-.414-.415c-.105-.167-.172-.356-.196-.553l-.009-.159v-3.903c-.708.733-1.595 1.236-2.667 1.236-1.939 0-3.269-1.647-4.04-3.313-.819-1.78-1.293-4.145-1.293-6.687s.473-4.907 1.293-6.687c.735-1.592 1.981-3.164 3.78-3.303l.26-.011h16zm0 2.667H11.709c.12.213.229.429.329.647.821 1.78 1.295 4.145 1.295 6.687v10.817l2.245-.749c.274-.091.569-.091.843 0l3.687 1.229 3.673-.613c.144-.024.293-.024.437 0l2.448.409V14.001c0-2.245-.423-4.213-1.049-5.569C24.94 6.961 24.27 6.668 24 6.668zm-16 0c-.271 0-.94.293-1.617 1.764C5.756 9.787 5.334 11.755 5.334 14s.423 4.213 1.049 5.569C7.06 21.04 7.73 21.333 8 21.333s.94-.293 1.617-1.764c.627-1.356 1.049-3.324 1.049-5.569s-.423-4.213-1.049-5.569C8.94 6.96 8.27 6.667 8 6.667zm0 4.666c.736 0 1.333 1.193 1.333 2.667S8.736 16.667 8 16.667 6.667 15.474 6.667 14 7.264 11.333 8 11.333z"/>
    </symbol>
    <symbol id="icon-tow" viewBox="0 0 32 32">
      <path d="m31.024 21.912-4.99-1.069v-8.748c0-2.332-1.898-4.231-4.23-4.231h-1.193V6.779h1.627c.325 0 .542-.217.542-.542s-.217-.542-.542-.542h-1.627V4.61c0-.325-.217-.542-.542-.542s-.542.217-.542.542v1.085H9.764V4.61c0-.325-.217-.542-.542-.542s-.542.217-.542.542v1.085H7.053c-.325 0-.542.217-.542.542s.217.542.542.542H8.68V7.93c-3.347.387-6.18 2.456-7.633 5.358h-.014l-.062.154c-.604 1.261-.949 2.673-.967 4.167l-.002.017h.001c0 .036-.001.072-.001.108V20.5c0 2.278 1.898 4.176 4.176 4.176h.163c.325 0 .542-.217.542-.542 0-2.386 1.953-4.339 4.339-4.339s4.339 1.953 4.339 4.339c0 .325.217.542.542.542h5.424v2.712c0 .325.217.542.542.542s.542-.217.542-.542v-.542h1.085c.325 0 .542-.217.542-.542s-.217-.542-.542-.542h-1.085v-1.085h10.197c.651 0 1.193-.542 1.193-1.139v-.434c0-.597-.434-1.085-.976-1.193zM9.763 6.78h9.763v1.085H9.818c-.018 0-.036.001-.054.001V6.781zm7.593 16.813v-2.712h1.085c.325 0 .542-.217.542-.542s-.217-.542-.542-.542h-1.085v-5.424h4.339v9.22h-4.339zm5.424 0v-9.275c0-.542-.488-1.03-1.03-1.03h-4.447c-.542 0-1.03.488-1.03 1.03v9.275h-1.681c-.271-2.712-2.549-4.881-5.37-4.936-2.766 0-5.098 2.169-5.37 4.881-1.573-.163-2.766-1.519-2.766-3.091v-2.766c0-.018.001-.036.001-.054h2.928c.814 0 1.41-.597 1.41-1.356v-1.573c0-.814-.597-1.41-1.41-1.41H2.269c1.512-2.596 4.325-4.339 7.55-4.339h11.986c1.736 0 3.146 1.41 3.146 3.146v10.251c0 .349-.133.658-.353.881l-.018.018c-.02.019-.04.037-.061.055-.011.009-.022.019-.034.028-.019.015-.038.029-.058.043-.012.008-.023.016-.035.024-.024.016-.049.03-.074.044-.007.004-.013.008-.02.011-.175.092-.377.144-.594.144h-.922zm-21.044-9.22h2.278c.163 0 .325.163.325.271v1.573c0 .163-.163.325-.271.325H1.193c.054-.759.271-1.464.542-2.169zm29.179 9.112c0 .054-.054.108-.108.108h-5.098c.197-.345.303-.69.322-1.116.002-.044.004-.087.004-.131v-.434l4.773 1.03c.054 0 .108.054.108.108v.434z"/>
      <path d="M9.22 20.881c-1.79 0-3.254 1.464-3.254 3.254s1.464 3.254 3.254 3.254 3.254-1.464 3.254-3.254-1.464-3.254-3.254-3.254zm0 5.424c-1.193 0-2.17-.976-2.17-2.169s.976-2.169 2.17-2.169c1.193 0 2.17.976 2.17 2.169s-.976 2.169-2.169 2.169z"/>
      <path d="M9.22 23.051c-.597 0-1.085.488-1.085 1.085s.488 1.085 1.085 1.085 1.085-.488 1.085-1.085-.488-1.085-1.085-1.085zM13.234 13.234H8.407c-.814 0-1.41.651-1.41 1.41v1.573c0 .814.651 1.41 1.41 1.41h4.827c.814 0 1.41-.597 1.41-1.41v-1.573c0-.814-.651-1.41-1.41-1.41zm.38 3.037c0 .163-.163.325-.325.325H8.462c-.163 0-.325-.163-.325-.325v-1.573c0-.163.163-.325.325-.325h4.827c.163 0 .325.163.325.325v1.573zM20.068 15.458h-1.085c-.325 0-.542.217-.542.542s.217.542.542.542h1.085c.325 0 .542-.217.542-.542s-.217-.542-.542-.542zM20.068 17.627h-1.085c-.325 0-.542.217-.542.542s.217.542.542.542h1.085c.325 0 .542-.217.542-.542s-.217-.542-.542-.542zM20.61 10.576H9.22c-.325 0-.542.217-.542.542s.217.542.542.542h11.39c.325 0 .542-.217.542-.542s-.217-.542-.542-.542z"/>
    </symbol>
    <symbol id="icon-tv" viewBox="0 0 32 32">
     <g stroke="#101828" fill="none" stroke-linecap="round" stroke-linejoin="round" stroke-width="1.8">
    <path d="M24 26.5H8c-2.216 0-4-1.784-4-4v-10c0-2.216 1.784-4 4-4h16c2.216 0 4 1.784 4 4v10c0 2.216-1.784 4-4 4ZM12 30.5h8M16 8.5l6-6M16 8.5l-6-6"/>
  </g>
    </symbol>
    <symbol id="icon-van" viewBox="0 0 32 32">
      <path d="M1.826 6.06h8.686c.073 0 .142-.028.194-.079l.834-.814c.243-.237.565-.367.908-.367H25.62c.613 0 1.183.297 1.523.795l1.579 2.31c.224.328.244.747.054 1.095s-.56.563-.964.563h-6.789v.669H24.5c.922 0 1.751.534 2.112 1.361l2.036 4.655 1.783.696c.952.372 1.568 1.258 1.568 2.259v4.311c0 .643-.536 1.166-1.195 1.166h-2.075c-.241 1.427-1.515 2.52-3.045 2.52s-2.804-1.092-3.045-2.52H11.297c-.241 1.427-1.515 2.52-3.045 2.52s-2.804-1.092-3.045-2.52H1.062c-.586 0-1.063-.465-1.063-1.037V7.84c0-.982.819-1.781 1.826-1.781zm23.859 20.156c1.146 0 2.078-.909 2.078-2.027s-.932-2.027-2.078-2.027-2.078.909-2.078 2.027.932 2.027 2.078 2.027zm-4.661-2.52h1.615c.004-.025.009-.049.014-.073.003-.017.006-.033.01-.05.008-.039.017-.077.027-.115l.006-.024c.012-.046.025-.091.04-.136.004-.013.009-.026.013-.039.01-.032.021-.063.033-.094.006-.017.013-.033.02-.05.01-.027.021-.054.033-.081.007-.018.015-.035.023-.052.011-.026.023-.05.035-.076.009-.018.017-.035.027-.053.012-.024.025-.048.038-.072.009-.017.019-.035.029-.052.013-.024.027-.047.042-.07.01-.017.02-.033.03-.05.015-.024.031-.047.046-.07.01-.015.021-.031.031-.046.017-.025.036-.049.054-.074.009-.013.019-.026.028-.039.025-.032.05-.063.076-.094.004-.005.007-.009.011-.014.03-.035.061-.07.092-.104.01-.011.02-.02.03-.031.022-.023.044-.046.067-.069.013-.013.026-.025.039-.037.021-.02.042-.039.063-.059.014-.013.029-.025.043-.038l.063-.054.046-.037c.021-.017.043-.034.065-.05.016-.012.032-.024.048-.035.022-.016.045-.032.068-.047.016-.011.032-.022.048-.032.024-.016.048-.031.073-.046.016-.009.031-.019.048-.029.027-.016.054-.031.082-.046.014-.008.028-.016.042-.023.039-.02.078-.04.118-.059.003-.001.006-.003.009-.004.043-.02.086-.039.13-.057.014-.006.029-.011.043-.017.03-.012.06-.024.091-.035.017-.006.035-.012.052-.018.028-.009.056-.019.084-.028.019-.006.038-.011.057-.017.027-.008.055-.016.082-.023l.06-.015c.027-.007.055-.013.083-.018.02-.004.04-.009.061-.013.028-.005.057-.01.085-.015.02-.004.04-.007.06-.009.029-.004.059-.008.09-.011.019-.002.038-.005.058-.006.033-.003.067-.006.1-.007.017-.001.033-.003.049-.003.05-.003.1-.004.151-.004s.101.001.151.004c.017 0 .033.002.049.003.034.002.067.004.1.007.019.002.039.004.058.006.03.004.06.007.09.011.021.003.04.006.061.009.029.004.057.009.085.015.021.004.041.008.061.013.028.006.055.012.083.018l.06.015c.027.007.055.015.082.023.019.006.038.011.057.017.028.009.056.018.084.028.017.006.035.012.052.018.031.011.061.023.091.035.014.006.029.011.043.017.044.018.087.037.13.057.003.002.006.003.009.004.04.019.079.039.118.059.014.007.027.015.042.023.027.015.055.03.082.046.016.009.032.019.048.029.024.015.049.03.073.046.016.011.032.022.048.032.023.016.046.031.068.047.016.011.032.023.048.035.022.016.044.033.065.05l.046.037c.021.018.042.035.063.054.015.013.029.025.043.038.021.019.042.039.063.059.013.012.026.024.039.037.023.023.045.046.067.069.01.01.02.02.03.031.031.034.062.068.092.104.004.005.008.009.011.014.026.031.051.062.076.094.01.013.019.026.028.039.019.024.037.049.054.074.01.015.021.03.031.046.016.024.031.047.046.07.01.017.02.033.03.05.014.023.028.047.042.07.01.017.019.035.029.052.013.024.026.048.038.072.009.018.018.035.027.053.012.025.023.05.035.076.008.017.016.035.023.052.012.027.022.054.033.081.007.016.013.033.02.05.011.031.022.063.033.094.004.013.009.026.013.039.014.045.027.09.04.136l.006.024c.01.038.019.076.027.115.004.016.006.033.01.05.005.024.01.048.014.073h2.074c.103 0 .186-.082.186-.182v-2.062h-.787v-.984h.787v-1.264c0-.596-.366-1.124-.933-1.345l-1.888-.737h-7.146v6.574zm0-7.558h6.48l-1.818-4.158c-.203-.464-.668-.763-1.185-.763h-3.477v4.921zM8.252 26.216c1.146 0 2.078-.909 2.078-2.027s-.932-2.027-2.078-2.027c-.036 0-.071.001-.107.003-.955.047-1.742.727-1.929 1.616-.007.033-.013.067-.019.1-.011.067-.017.135-.021.204-.002.035-.003.069-.003.104 0 1.118.932 2.027 2.078 2.027zm-7.243-5.748h.787v.984h-.787v2.192c0 .029.024.052.054.052h4.144c.004-.024.009-.048.014-.072.003-.017.006-.034.01-.051.008-.038.017-.075.027-.112.002-.009.004-.018.006-.026.012-.046.025-.09.04-.135.004-.014.009-.028.014-.041.011-.031.021-.062.032-.093.006-.017.013-.034.02-.051.011-.027.021-.054.032-.08l.024-.054c.011-.025.023-.05.035-.074.008-.018.018-.036.027-.054.012-.024.025-.048.038-.072.01-.017.019-.035.029-.052.014-.024.027-.047.042-.07.01-.017.02-.033.031-.05.015-.024.03-.047.046-.07.01-.016.021-.032.031-.046.017-.025.035-.049.053-.073.01-.013.019-.027.029-.04.024-.031.049-.062.074-.092.004-.006.008-.011.013-.016.03-.035.061-.07.092-.104.01-.011.02-.021.03-.032.022-.023.044-.046.067-.068.013-.013.026-.025.04-.037.021-.02.041-.039.063-.058.014-.013.029-.025.044-.038.021-.018.042-.035.063-.053.015-.013.031-.025.046-.037.021-.017.043-.033.065-.05.016-.012.032-.024.048-.035.022-.016.045-.032.067-.047.017-.011.033-.022.049-.033.024-.016.048-.031.072-.045.016-.01.032-.02.048-.029.027-.016.054-.031.081-.046.014-.008.028-.016.042-.023.038-.02.077-.04.117-.058.003-.002.006-.004.01-.005.043-.02.086-.039.13-.057.014-.006.029-.011.043-.017.03-.012.06-.024.091-.035.017-.006.035-.012.053-.018.027-.009.055-.019.084-.028.019-.006.038-.011.057-.017.027-.008.055-.016.082-.023l.06-.015c.027-.007.055-.013.083-.018.02-.004.04-.009.061-.013.028-.005.056-.01.085-.015.02-.004.04-.007.061-.009.029-.004.059-.008.09-.011.019-.002.038-.005.058-.006.033-.003.067-.006.1-.007.016-.001.033-.003.049-.003.05-.003.1-.004.151-.004s.101.001.151.004c.017 0 .033.002.049.003.033.002.067.004.1.007.019.002.039.004.058.006.03.004.06.007.09.011.021.003.04.006.06.009.029.004.057.009.085.015.021.004.041.008.061.013.028.006.055.012.083.018l.06.015c.027.007.055.015.082.023.019.006.038.011.057.017.028.009.056.018.084.028.018.006.036.012.053.018.031.011.061.023.091.035.014.006.029.011.043.017.044.018.087.037.13.057.004.002.007.003.01.005.04.019.078.038.117.058.014.007.028.015.042.023.027.015.054.03.081.046.016.009.032.019.048.029l.072.045c.016.011.032.022.049.033.023.015.045.031.067.047.016.011.032.023.048.035.022.016.044.033.065.05.016.012.031.025.046.037.021.017.042.035.063.053.015.013.029.025.044.038.021.019.042.039.063.059.013.012.026.024.039.037.023.022.045.046.067.069.01.01.02.02.03.031.031.034.062.068.092.104l.012.015c.025.031.051.062.075.094.01.013.019.026.029.039.018.024.036.049.054.074.01.015.021.031.031.046.016.023.031.046.046.07.01.017.021.033.031.05.014.023.028.047.042.07.01.017.019.035.029.052.013.024.026.048.038.072.009.018.017.035.026.053.012.025.023.05.035.076.008.017.016.035.023.052.012.027.022.054.033.081.006.016.013.033.019.05.012.031.022.063.033.095.004.013.009.026.013.039.014.045.027.091.04.136.002.007.003.015.005.022.01.039.019.078.028.117.004.016.006.032.009.048.005.025.01.049.015.074h8.717V9.073c0-.272.226-.492.504-.492h7.293c.012 0 .051 0 .075-.044s.003-.074-.004-.084l-1.578-2.31c-.153-.224-.408-.357-.684-.357H12.453c-.073 0-.142.028-.195.079l-.834.814c-.242.237-.565.367-.908.367H1.83c-.45 0-.817.357-.817.797V20.47z"/>
      <path d="M3.875 9.838h6.17c.713 0 1.293.566 1.293 1.262v2.87c0 .696-.58 1.262-1.293 1.262h-6.17c-.713 0-1.293-.566-1.293-1.262V11.1c0-.696.581-1.262 1.294-1.262zm-.284 4.132c0 .153.127.278.284.278h6.17c.157 0 .284-.124.284-.278V11.1c0-.153-.128-.278-.284-.278h-6.17c-.157 0-.284.124-.284.278v2.87z"/>
    </symbol>
    <symbol id="icon-water" viewBox="0 0 32 32">
      <path fill="none" stroke="#101828" stroke-miterlimit="10" stroke-width="2.4" d="M25 20c0 5.523-3.477 9-9 9s-9-3.477-9-9c0-5.927 6.452-13.928 8.431-16.242.07-.082.158-.148.256-.194s.205-.069.314-.069c.108 0 .215.023.314.069s.186.111.256.194c1.978 2.314 8.43 10.316 8.43 16.242z"/>
      <path fill="none" stroke="#101828" strokeLinecap="round" strokeLinejoin="round" stroke-width="2.4" d="M21.5 20.5c0 1.193-.474 2.338-1.318 3.182S18.194 25 17 25"/>
    </symbol>
  </defs>
</svg>


<svg xmlns="http://www.w3.org/2000/svg" xml:space="preserve" width="32" height="33" style="fill-rule:evenodd;clip-rule:evenodd;stroke-linejoin:round;stroke-miterlimit:2">
  <path d="M15.554 5.3c-1.351 0-2.66.481-3.705 1.359s-1.761 2.101-2.026 3.459l-.105.54c-.028.12-.031.245-.011.367s.064.239.13.343c.065.105.15.194.25.264s.212.119.331.143c.118.024.24.024.358-.001.119-.025.231-.075.33-.145.099-.071.184-.161.249-.266.064-.104.108-.221.127-.344l.106-.537c.2-1.007.757-1.903 1.563-2.513.807-.61 1.805-.892 2.803-.791.997.102 1.922.58 2.596 1.341.673.761 1.048 1.751 1.05 2.779 0 1.102-.426 2.159-1.186 2.938-.759.779-1.79 1.217-2.864 1.218H2.5c-.239 0-.468.097-.636.27-.169.173-.264.408-.264.653 0 .245.095.48.264.653.168.173.397.27.636.27h13.05c1.527-.038 2.978-.687 4.044-1.808 1.067-1.12 1.664-2.624 1.665-4.19 0-1.566-.596-3.07-1.662-4.192-1.066-1.121-2.517-1.771-4.043-1.81ZM25.9 13.608c-1.193 0-2.338.486-3.182 1.352-.844.865-1.318 2.039-1.318 3.263 0 .245.095.48.264.653.169.173.397.27.636.27s.468-.097.637-.27c.168-.173.263-.408.263-.653 0-.548.158-1.083.455-1.538.297-.456.719-.811 1.212-1.02.493-.21 1.036-.265 1.56-.158.524.107 1.005.371 1.382.758.378.387.635.881.739 1.418.104.537.051 1.094-.153 1.6-.205.506-.551.938-.995 1.243-.444.304-.966.466-1.5.466H2.5c-.239 0-.468.098-.636.271-.169.173-.264.408-.264.652 0 .245.095.48.264.653.168.173.397.271.636.271h17.55c.597.001 1.169.245 1.59.679.421.433.657 1.021.656 1.633-.002.612-.24 1.198-.663 1.63-.422.432-.995.674-1.592.673-.537 0-1.058-.195-1.469-.55-.41-.356-.685-.849-.775-1.392l-.009-.056c-.017-.122-.057-.24-.118-.346-.061-.107-.143-.199-.24-.273-.097-.073-.207-.125-.324-.154-.118-.029-.239-.034-.358-.013-.119.02-.232.065-.334.131-.102.066-.19.152-.258.254-.069.102-.117.216-.141.337-.025.121-.026.246-.002.367l.009.056c.16.974.651 1.859 1.387 2.497.736.638 1.669.988 2.632.988 1.075.001 2.107-.437 2.868-1.216.761-.778 1.189-1.835 1.191-2.938 0-.855-.252-1.648-.682-2.307H25.9c1.194 0 2.338-.487 3.182-1.352.844-.866 1.318-2.04 1.318-3.264 0-1.224-.474-2.398-1.318-3.263-.844-.866-1.988-1.352-3.182-1.352Z" style="fill:#101828;fill-rule:nonzero"/>
</svg>